# Blender 4.5.0
# www.blender.org
mtllib mesh.mtl
o WoS_Boundary
v 1.000000 1.000000 -1.000000
v 1.000000 -1.000000 -1.000000
v 1.000000 1.000000 1.000000
v 1.000000 -1.000000 1.000000
v -1.000000 1.000000 -1.000000
v -1.000000 -1.000000 -1.000000
v -1.000000 1.000000 1.000000
v -1.000000 -1.000000 1.000000
v 1.000000 0.000000 1.000000
v 1.000000 -0.000000 -1.000000
v -1.000000 -0.000000 -1.000000
v -1.000000 0.000000 1.000000
vn -0.0000 1.0000 -0.0000
vn -0.0000 -1.0000 -0.0000
vn -0.0000 -0.0000 1.0000
vn 1.0000 -0.0000 -0.0000
vn -0.0000 -0.0000 -1.0000
vn -1.0000 -0.0000 -0.0000
vt 0.333333 0.000000
vt 0.333333 0.333333
vt 0.000000 0.333333
vt 0.000000 0.000000
vt 0.333333 0.666667
vt 0.000000 0.666667
vt 0.500000 0.666667
vt 0.500000 0.333333
vt 0.166667 1.000000
vt 0.000000 1.000000
vt 0.166667 0.666667
vt 0.333333 1.000000
vt 0.500000 1.000000
vt 0.833333 0.333333
vt 0.666667 0.333333
vt 0.666667 -0.000000
vt 0.833333 0.000000
vt 0.833333 0.666667
vt 0.666667 0.666667
vt 0.833333 1.000000
vt 0.666667 1.000000
vt 1.000000 0.333333
vt 1.000000 0.000000
s 1
usemtl WOS_Dirichlet
f 1/1/1 5/2/1 7/3/1 3/4/1
f 6/2/2 2/5/2 4/6/2 8/3/2
f 9/7/3 3/5/3 7/2/3 12/8/3
f 10/9/4 1/10/4 3/6/4 9/11/4
f 11/12/5 5/9/5 1/11/5 10/5/5
f 12/13/6 7/12/6 5/5/6 11/7/6
f 8/14/6 12/15/6 11/16/6 6/17/6
f 6/18/5 11/19/5 10/15/5 2/14/5
f 2/20/4 10/21/4 9/19/4 4/18/4
f 4/22/3 9/14/3 12/17/3 8/23/3
usemtl WOS_Neumann
f 12/2/1 9/1/1 10/16/1 11/15/1
